<svg width="1134" height="1134" viewBox="0 0 1134 1134" fill="none" xmlns="http://www.w3.org/2000/svg">
<g id="Message">
<g id="leg">
<path d="M178.127 978.691L208.087 925.938L230.374 934.239L199.187 991.142C199.188 991.143 182.815 987.476 178.127 978.691Z" fill="#EAEAEA"/>
<path d="M216.718 1046.26C207.614 1055.45 200.572 1050.89 187.178 1051.01C173.809 1051.14 119.893 1054.42 100.819 1050.19C81.767 1045.95 51.211 1038.62 41.476 1018.89C31.744 999.163 36.089 993.604 40.114 985.36C41.656 982.214 43.751 981.471 45.964 981.906C49.599 982.565 53.539 986.295 55.946 987.706C59.828 989.969 77.586 993.421 88.272 992.491C98.956 991.545 119.507 991.783 133.316 983.281C147.148 974.781 159.537 971.892 159.537 971.892C159.567 971.685 152.142 941.055 163.031 948.299C173.896 955.54 178.216 959.683 181.746 959.509C185.292 959.337 200.155 953.986 200.552 965.563C200.947 977.117 209.892 973.715 217.746 968.106C225.601 962.482 232.156 970.495 221.353 986.467C219.29 1000.4 220.602 1018.04 219.711 1025.9C219.498 1027.77 219.18 1029.07 218.648 1029.67C215.91 1032.76 225.804 1037.05 216.718 1046.26Z" fill="#230000"/>
<path d="M193.635 1014.02C192.814 1019.57 187.655 1023.4 182.106 1022.58C176.563 1021.76 172.735 1016.59 173.555 1011.05C174.374 1005.5 179.537 1001.68 185.082 1002.5C190.627 1003.32 194.456 1008.48 193.635 1014.02Z" fill="white"/>
<path d="M113.471 1002.29C113.19 1002.29 112.94 1002.09 112.894 1001.8C112.132 997.142 105.31 991.71 105.241 991.657C104.987 991.456 104.943 991.088 105.143 990.833C105.344 990.579 105.713 990.535 105.966 990.736C106.262 990.969 113.216 996.504 114.05 1001.61C114.103 1001.93 113.887 1002.23 113.568 1002.29C113.535 1002.29 113.503 1002.29 113.471 1002.29Z" fill="white"/>
<path d="M126.378 1001.39C126.122 1001.39 125.887 1001.22 125.814 1000.96C124.393 996.022 117.54 989.722 117.471 989.658C117.231 989.44 117.213 989.07 117.432 988.83C117.651 988.59 118.022 988.573 118.26 988.792C118.552 989.058 125.427 995.377 126.941 1000.64C127.031 1000.95 126.85 1001.28 126.54 1001.36C126.484 1001.38 126.432 1001.39 126.378 1001.39Z" fill="white"/>
<path d="M139.08 1000.59C138.802 1000.59 138.554 1000.39 138.504 1000.1C137.094 992.154 128.375 986.272 128.287 986.213C128.017 986.034 127.943 985.67 128.123 985.4C128.303 985.13 128.666 985.059 128.936 985.237C129.312 985.487 138.162 991.461 139.658 999.898C139.715 1000.22 139.502 1000.52 139.182 1000.58C139.148 1000.58 139.114 1000.59 139.08 1000.59Z" fill="white"/>
<path d="M150.124 992.77C149.899 992.77 149.684 992.639 149.589 992.42C145.723 983.677 137.157 981.614 137.07 981.595C136.755 981.523 136.556 981.208 136.63 980.893C136.704 980.578 137.005 980.377 137.332 980.452C137.706 980.537 146.551 982.649 150.659 991.947C150.791 992.243 150.657 992.589 150.36 992.719C150.284 992.754 150.203 992.77 150.124 992.77Z" fill="white"/>
<path d="M577.665 856.008C577.665 856.008 441.974 825.504 397.642 856.008C353.311 886.501 281.278 954.044 275.729 956.213C274.136 956.835 265.691 956.752 254.444 955.628C226.567 952.847 181.531 943.723 181.531 923.539C181.531 895.218 283.12 714.409 342.228 670.838C364.581 654.359 396.986 654.712 430.023 661.396C460.832 667.636 492.205 679.386 516.518 688.137L516.551 688.148C531.129 693.392 543.173 697.565 551.031 698.808L577.559 796.583C578.475 828.542 577.665 856.008 577.665 856.008Z" fill="#983A5D"/>
<path d="M577.665 856.008C577.665 856.008 441.974 825.504 397.642 856.008C353.311 886.501 281.278 954.044 275.729 956.213C274.136 956.835 265.691 956.752 254.444 955.628C287.68 899.004 407.705 835.229 422.247 814.926C435.419 796.537 432.064 701.376 430.023 661.396L516.518 688.137L516.551 688.148L551.031 698.808L577.559 796.583C578.475 828.542 577.665 856.008 577.665 856.008Z" fill="#7F2248"/>
<path d="M515.578 849.865C515.188 849.865 514.805 849.67 514.583 849.314C479.979 793.967 460.952 687.014 460.764 685.94C460.654 685.302 461.078 684.694 461.717 684.583C462.367 684.475 462.963 684.899 463.075 685.535C463.262 686.605 482.211 793.114 516.571 848.07C516.915 848.62 516.747 849.342 516.198 849.686C516.005 849.808 515.79 849.865 515.578 849.865Z" fill="#230000"/>
<path d="M247.389 937.65C247.344 937.65 247.3 937.648 247.255 937.642C246.611 937.569 246.149 936.987 246.223 936.345C247.538 924.853 285.487 888.193 322.185 852.739C345.35 830.362 367.231 809.223 378.87 795.502C386.001 787.095 390.235 780.222 392.621 774.673C387.392 770.608 374.131 759.593 375.277 753.257C375.51 751.967 376.423 750.248 379.442 749.386C385.786 747.577 392.205 749.723 395.425 754.72C397.153 757.402 399.401 763.414 395.423 773.862C395.472 773.901 395.525 773.939 395.574 773.977H469.556C470.203 773.977 470.729 774.501 470.729 775.149C470.729 775.797 470.204 776.322 469.556 776.322H395.187C394.94 776.322 394.701 776.245 394.501 776.101C391.983 781.819 387.678 788.74 380.657 797.018C368.943 810.829 347.022 832.006 323.814 854.426C289.107 887.953 249.77 925.955 248.551 936.611C248.484 937.209 247.977 937.65 247.389 937.65ZM383.884 751.115C382.571 751.115 381.277 751.303 380.085 751.642C377.835 752.283 377.647 753.33 377.583 753.674C376.849 757.741 386.174 766.628 393.521 772.404C396.801 763.392 394.938 758.294 393.454 755.991C391.206 752.507 387.47 751.115 383.884 751.115Z" fill="#230000"/>
<path d="M278.593 773.858C278.363 773.858 278.128 773.789 277.923 773.647C277.391 773.278 277.262 772.545 277.632 772.015C279.936 768.711 282.203 765.536 284.374 762.58C284.757 762.059 285.489 761.945 286.014 762.329C286.535 762.712 286.649 763.446 286.264 763.969C284.106 766.909 281.849 770.068 279.557 773.357C279.328 773.683 278.964 773.858 278.593 773.858Z" fill="#230000"/>
<path d="M259.488 802.848C259.275 802.848 259.058 802.79 258.864 802.668C258.316 802.323 258.151 801.598 258.497 801.051C260.289 798.201 262.088 795.369 263.887 792.575C264.24 792.03 264.963 791.876 265.51 792.225C266.053 792.577 266.212 793.303 265.861 793.847C264.065 796.634 262.272 799.456 260.483 802.3C260.26 802.655 259.877 802.848 259.488 802.848Z" fill="#230000"/>
<path d="M241.322 832.779C241.119 832.779 240.914 832.728 240.727 832.617C240.167 832.288 239.983 831.569 240.31 831.012C242.459 827.36 244.641 823.687 246.846 820.016C247.18 819.461 247.9 819.281 248.457 819.614C249.011 819.948 249.19 820.669 248.857 821.225C246.654 824.889 244.475 828.555 242.333 832.201C242.114 832.573 241.724 832.779 241.322 832.779Z" fill="#230000"/>
<path d="M222.885 864.976C222.692 864.976 222.495 864.928 222.316 864.828C221.749 864.512 221.547 863.798 221.863 863.232C224.741 858.077 227.665 852.901 230.551 847.85C230.873 847.287 231.588 847.089 232.152 847.413C232.715 847.734 232.91 848.451 232.589 849.013C229.707 854.058 226.787 859.227 223.912 864.375C223.696 864.76 223.296 864.976 222.885 864.976Z" fill="#230000"/>
<path d="M207.011 893.982C206.823 893.982 206.634 893.937 206.456 893.842C205.887 893.536 205.672 892.825 205.978 892.254C209.126 886.382 212.358 880.434 215.578 874.572C215.891 874.004 216.604 873.797 217.172 874.11C217.739 874.422 217.946 875.133 217.635 875.701C214.418 881.556 211.193 887.497 208.044 893.363C207.833 893.758 207.428 893.982 207.011 893.982Z" fill="#230000"/>
<path d="M193.744 919.195C193.566 919.195 193.385 919.153 193.214 919.067C192.637 918.773 192.407 918.066 192.701 917.49C192.73 917.433 195.613 911.784 200.47 902.6C200.771 902.026 201.483 901.807 202.053 902.111C202.626 902.413 202.847 903.122 202.542 903.695C197.696 912.865 194.819 918.5 194.791 918.555C194.583 918.961 194.173 919.195 193.744 919.195Z" fill="#230000"/>
<path d="M237.629 853.442C237.459 853.442 237.287 853.406 237.122 853.327C236.538 853.047 236.292 852.347 236.572 851.762C238.027 848.727 239.45 845.722 240.82 842.785C241.095 842.198 241.793 841.946 242.38 842.218C242.967 842.491 243.221 843.189 242.946 843.777C241.572 846.722 240.147 849.733 238.687 852.777C238.485 853.198 238.066 853.442 237.629 853.442Z" fill="#230000"/>
<path d="M224.429 880.207C224.25 880.207 224.071 880.166 223.901 880.081C223.323 879.789 223.091 879.083 223.382 878.506C225.064 875.174 226.779 871.75 228.501 868.284C228.788 867.704 229.49 867.466 230.072 867.756C230.653 868.044 230.889 868.748 230.601 869.328C228.876 872.798 227.159 876.227 225.476 879.561C225.27 879.971 224.856 880.207 224.429 880.207Z" fill="#230000"/>
<path d="M210.797 906.75C210.613 906.75 210.428 906.708 210.255 906.618C209.681 906.317 209.459 905.609 209.757 905.035C212.058 900.629 214.832 895.278 217.863 889.359C218.158 888.783 218.864 888.554 219.441 888.851C220.018 889.145 220.246 889.851 219.949 890.429C216.915 896.353 214.139 901.712 211.838 906.121C211.628 906.521 211.22 906.75 210.797 906.75Z" fill="#230000"/>
</g>
<g id="leg2">
<path d="M919.159 832.576L860.674 848.693L850.783 827.065L913.072 808.879C913.072 808.879 922.055 823.046 919.159 832.576Z" fill="#EAEAEA"/>
<path d="M939.646 757.515C952.585 757.448 954.339 765.653 963.897 775.038C973.445 784.399 1013.89 820.205 1024.38 836.687C1034.85 853.154 1051.28 879.943 1044.21 900.776C1037.14 921.611 1030.14 922.467 1021.46 925.45C1018.15 926.584 1016.14 925.631 1014.88 923.757C1012.78 920.72 1012.63 915.296 1011.93 912.595C1010.78 908.249 1000.67 893.253 992.454 886.356C984.228 879.47 969.864 864.769 954.088 861.017C938.298 857.247 927.495 850.531 927.495 850.531C927.327 850.655 910.921 877.563 908.341 864.742C905.778 851.94 905.652 845.954 903.034 843.581C900.406 841.196 886.112 834.469 894.018 826.003C901.908 817.553 893.178 813.633 883.657 812.048C874.126 810.467 875.158 800.167 894.09 796.51C905.401 788.117 916.944 774.72 923.137 769.787C924.605 768.62 925.751 767.925 926.55 767.878C930.676 767.625 926.713 757.597 939.646 757.515Z" fill="#230000"/>
<path d="M939.646 757.515C952.585 757.448 954.339 765.653 963.897 775.038C973.445 784.399 1013.89 820.205 1024.38 836.687C1034.85 853.154 1051.28 879.943 1044.21 900.776C1037.14 921.611 1030.14 922.467 1021.46 925.45C1018.15 926.584 1016.14 925.631 1014.88 923.757C1024.23 910.273 1031.94 891.696 1022.83 873.461C1005.51 838.893 959.001 797.223 945.469 789.492C939.241 785.927 930.615 777.67 923.137 769.789C924.605 768.622 925.751 767.927 926.55 767.88C930.676 767.625 926.713 757.597 939.646 757.515Z" fill="white"/>
<path d="M933.178 796.625C937.679 793.287 944.037 794.225 947.382 798.73C950.719 803.229 949.775 809.587 945.276 812.929C940.772 816.271 934.417 815.327 931.075 810.826C927.733 806.323 928.677 799.966 933.178 796.625Z" fill="white"/>
<path d="M979.284 875.603C978.992 875.603 978.736 875.384 978.702 875.085C978.658 874.712 977.653 865.879 980.676 861.676C980.864 861.413 981.23 861.354 981.493 861.542C981.758 861.731 981.817 862.098 981.627 862.361C978.869 866.197 979.856 874.86 979.867 874.946C979.906 875.268 979.676 875.559 979.352 875.597C979.33 875.602 979.307 875.603 979.284 875.603Z" fill="white"/>
<path d="M969.221 868.322C968.908 868.322 968.649 868.077 968.635 867.762C968.616 867.368 968.223 858.038 970.874 853.25C971.033 852.965 971.386 852.866 971.672 853.021C971.953 853.178 972.057 853.535 971.901 853.818C969.407 858.319 969.802 867.616 969.805 867.71C969.821 868.033 969.572 868.307 969.245 868.321C969.237 868.322 969.227 868.322 969.221 868.322Z" fill="white"/>
<path d="M959.146 863.201C958.874 863.201 958.627 863.009 958.572 862.73C958.483 862.287 956.448 851.805 961.356 844.78C961.543 844.513 961.91 844.451 962.172 844.635C962.437 844.821 962.504 845.186 962.318 845.451C957.701 852.059 959.701 862.394 959.721 862.498C959.785 862.815 959.579 863.124 959.261 863.188C959.224 863.198 959.186 863.201 959.146 863.201Z" fill="white"/>
<path d="M949.748 860.452C949.553 860.452 949.363 860.354 949.252 860.178C949.047 859.853 944.287 852.105 947.955 842.623C948.072 842.32 948.412 842.173 948.713 842.288C949.014 842.405 949.165 842.745 949.049 843.047C945.599 851.964 950.197 859.48 950.244 859.554C950.417 859.828 950.332 860.19 950.058 860.363C949.961 860.424 949.854 860.452 949.748 860.452Z" fill="white"/>
<path d="M866.888 899.579C853.893 923.538 765.5 1021.57 676.696 1030.29C676.696 1030.29 522.335 957.526 460.915 681.287C549.109 524.882 701.525 689.917 701.525 689.917C701.525 689.917 703.107 692.815 705.383 697.364C711.035 708.705 720.898 730.285 720.898 742.727C720.898 760.156 698.768 777.583 701.525 788.479C704.269 799.362 713.042 822.114 713.042 822.114C713.042 822.114 809.515 779.752 839.094 784.115C850.504 785.803 859.171 799.795 864.777 817.728C873.712 846.287 874.875 884.861 866.888 899.579Z" fill="#983A5D"/>
<path d="M864.775 817.73C845.073 832.472 791.722 839.566 766.907 845.114C736.636 851.881 684.588 908.715 676.988 892.296C669.389 875.877 668.169 838.348 659.28 814.925C650.378 791.505 661.133 777.362 646.871 757.518C632.609 737.663 610.457 711.182 610.457 711.182C610.457 711.182 676.203 695.829 705.383 697.364C711.035 708.705 720.898 730.286 720.898 742.728C720.898 760.157 698.768 777.583 701.525 788.479C704.269 799.362 713.042 822.114 713.042 822.114C713.042 822.114 809.515 779.752 839.094 784.115C850.503 785.805 859.17 799.797 864.775 817.73Z" fill="#7F2248"/>
<path d="M666.611 761.739C629.809 761.739 582.477 730.632 580.145 729.082C579.605 728.724 579.458 727.996 579.816 727.457C580.175 726.918 580.905 726.769 581.442 727.128C582.102 727.566 647.884 770.81 683.678 756.426C684.276 756.186 684.961 756.476 685.202 757.076C685.444 757.677 685.153 758.36 684.552 758.602C679.087 760.799 673.005 761.739 666.611 761.739Z" fill="#230000"/>
<path d="M686.386 927.811C685.628 927.811 684.819 927.657 684 927.343C681.347 926.327 678.012 923.296 677.353 918.095C677.002 915.341 677.349 911.096 680.456 905.586C678.371 902.808 675.806 899.642 672.66 896.031C660.31 881.851 634.829 790.432 633.751 786.548C633.578 785.924 633.942 785.278 634.567 785.104C635.193 784.933 635.838 785.296 636.01 785.921C636.274 786.866 662.425 880.708 674.428 894.489C677.232 897.709 679.678 900.685 681.774 903.428C685.297 898.079 691.365 891.688 701.573 884.428C706.498 880.925 710.8 877.795 714.594 875.033C742.063 855.045 747.012 851.443 808.497 835.691C838.96 827.885 851.431 824.261 856.472 822.579C856.433 822.489 856.404 822.391 856.389 822.289C856.292 821.649 856.732 821.051 857.372 820.956C860.101 820.542 861.451 820.561 861.703 821.804C861.947 823.003 862.039 823.451 851.512 826.572C842.926 829.116 828.652 832.948 809.08 837.963C748.027 853.605 743.134 857.166 715.974 876.931C712.175 879.697 707.869 882.83 702.934 886.34C692.438 893.806 686.503 900.205 683.249 905.401C688.876 913.097 691.499 918.803 691.224 922.704C691.103 924.412 690.44 925.799 689.25 926.828C688.496 927.478 687.496 927.811 686.386 927.811ZM681.963 907.645C679.658 912.103 679.39 915.525 679.68 917.8C680.21 921.971 682.789 924.369 684.838 925.152C686.016 925.603 687.121 925.566 687.715 925.052C688.425 924.439 688.807 923.615 688.884 922.536C689.051 920.16 687.76 915.758 681.963 907.645Z" fill="#230000"/>
<path d="M835.564 921.655C835.271 921.655 834.976 921.545 834.75 921.325C834.285 920.875 834.271 920.133 834.723 919.667C840.237 913.963 845.33 908.192 849.866 902.511C850.272 902.007 851.008 901.923 851.515 902.326C852.021 902.731 852.104 903.468 851.701 903.974C847.118 909.712 841.974 915.541 836.409 921.297C836.179 921.536 835.871 921.655 835.564 921.655Z" fill="#230000"/>
<path d="M806.819 947.944C806.478 947.944 806.142 947.798 805.91 947.514C805.5 947.013 805.574 946.274 806.075 945.864C810.531 942.212 814.86 938.505 818.939 934.842C819.418 934.409 820.161 934.448 820.593 934.931C821.027 935.414 820.987 936.154 820.505 936.587C816.4 940.273 812.044 944.004 807.561 947.678C807.344 947.857 807.079 947.944 806.819 947.944Z" fill="#230000"/>
<path d="M774.646 971.977C774.272 971.977 773.905 971.799 773.676 971.467C773.312 970.933 773.447 970.203 773.981 969.836C780.24 965.547 786.339 961.169 792.109 956.822C792.627 956.433 793.365 956.537 793.752 957.053C794.143 957.571 794.039 958.305 793.522 958.696C787.724 963.063 781.596 967.462 775.308 971.772C775.106 971.911 774.875 971.977 774.646 971.977Z" fill="#230000"/>
<path d="M742.551 992.456C742.152 992.456 741.76 992.25 741.541 991.883C741.21 991.326 741.393 990.605 741.948 990.275C751.277 984.726 760.399 978.971 769.06 973.172C769.597 972.812 770.326 972.954 770.688 973.494C771.048 974.033 770.904 974.761 770.366 975.121C761.669 980.943 752.512 986.72 743.148 992.29C742.96 992.403 742.754 992.456 742.551 992.456Z" fill="#230000"/>
<path d="M713.696 1008.63C713.275 1008.63 712.867 1008.4 712.657 1008C712.355 1007.43 712.575 1006.72 713.149 1006.42C718.952 1003.36 724.88 1000.12 730.77 996.771C731.336 996.453 732.05 996.649 732.37 997.213C732.691 997.776 732.492 998.491 731.93 998.812C726.018 1002.17 720.067 1005.42 714.242 1008.49C714.067 1008.58 713.881 1008.63 713.696 1008.63Z" fill="#230000"/>
<path d="M834.72 908.01C834.424 908.01 834.127 907.9 833.9 907.676C833.438 907.224 833.428 906.482 833.881 906.018C841.178 898.556 846.527 892.031 849.779 886.625C850.111 886.07 850.834 885.889 851.386 886.226C851.941 886.559 852.121 887.28 851.786 887.835C848.441 893.396 842.981 900.064 835.557 907.658C835.329 907.892 835.025 908.01 834.72 908.01Z" fill="#230000"/>
<path d="M806.833 933.395C806.496 933.395 806.165 933.251 805.933 932.975C805.517 932.478 805.582 931.738 806.079 931.324C814.449 924.324 821.84 917.75 828.055 911.782C828.521 911.334 829.265 911.347 829.713 911.817C830.161 912.284 830.147 913.026 829.679 913.475C823.427 919.479 815.994 926.088 807.583 933.121C807.365 933.305 807.098 933.395 806.833 933.395Z" fill="#230000"/>
<path d="M779.891 954.86C779.538 954.86 779.188 954.701 778.957 954.4C778.563 953.884 778.662 953.15 779.177 952.755C785.699 947.773 791.96 942.855 797.791 938.138C798.293 937.731 799.033 937.809 799.439 938.312C799.847 938.816 799.77 939.553 799.265 939.961C793.418 944.691 787.138 949.623 780.601 954.619C780.389 954.781 780.14 954.86 779.891 954.86Z" fill="#230000"/>
<path d="M757.649 971.396C757.287 971.396 756.927 971.228 756.699 970.912C756.319 970.388 756.435 969.654 756.961 969.274C761.669 965.862 766.403 962.377 771.028 958.915C771.549 958.525 772.284 958.636 772.671 959.151C773.061 959.67 772.954 960.405 772.437 960.794C767.8 964.263 763.056 967.755 758.337 971.173C758.128 971.323 757.888 971.396 757.649 971.396Z" fill="#230000"/>
<path d="M735.683 986.898C735.307 986.898 734.938 986.718 734.712 986.384C734.348 985.847 734.488 985.117 735.024 984.755C735.066 984.726 739.295 981.855 746.028 977.096C746.559 976.721 747.291 976.848 747.663 977.377C748.037 977.906 747.911 978.638 747.382 979.011C740.628 983.784 736.384 986.666 736.341 986.694C736.139 986.833 735.909 986.898 735.683 986.898Z" fill="#230000"/>
</g>
<path id="Vector" d="M216.718 1046.25C207.614 1055.45 200.572 1050.89 187.178 1051.01C173.809 1051.14 119.893 1054.42 100.819 1050.19C81.767 1045.95 51.211 1038.62 41.476 1018.89C31.744 999.163 36.089 993.604 40.114 985.36C41.656 982.214 43.751 981.471 45.964 981.906C48.888 998.05 56.577 1016.63 75.914 1023.09C112.602 1035.29 174.956 1031.86 189.99 1027.76C196.914 1025.88 208.848 1025.62 219.712 1025.9C219.499 1027.77 219.181 1029.07 218.649 1029.67C215.91 1032.76 225.804 1037.05 216.718 1046.25Z" fill="white"/>
<path id="Vector_2" d="M585.156 415.25C585.156 415.25 633.592 422.221 650.759 398.697C667.926 375.172 674.025 355.133 666.184 349.905C658.341 344.678 613.037 352.519 599.969 369.944C586.898 387.369 585.156 415.25 585.156 415.25Z" fill="#086370"/>
<path id="Vector_3" d="M450.647 666.302C450.647 666.302 444.722 442.327 543.335 437.031C551.177 422.329 613.908 411.076 620.009 416.215C626.107 421.352 647.888 530.258 663.572 558.139C679.254 586.019 709.723 706.482 709.723 706.482C709.723 706.482 513.479 745.992 450.647 666.302Z" fill="#230000"/>
<path id="Vector_4" d="M527.653 322.025C527.653 322.025 487.575 378.655 531.137 415.249C542.829 424.724 553.789 423.091 553.789 423.091C553.789 423.091 545.949 434.417 543.335 437.03C540.721 439.643 513.522 433.931 518.068 459.683C520.682 474.496 538.108 475.025 548.562 465.441C559.018 455.857 568.6 430.931 582.541 425.703C586.026 424.396 590.164 422.246 594.493 419.629C607.48 411.779 622.183 399.734 626.103 393.688C631.33 385.625 636.558 393.466 647.013 384.754C657.469 376.042 644.4 355.132 627.847 363.844C611.291 372.557 621.746 337.707 604.322 330.738C586.898 323.769 527.653 322.025 527.653 322.025Z" fill="#EAEAEA"/>
<path id="Vector_5" d="M496.905 672.949C496.304 672.949 495.705 672.72 495.246 672.262C494.331 671.345 494.331 669.861 495.246 668.946L558.19 606.002C559.106 605.085 560.59 605.085 561.507 606.002C562.422 606.918 562.422 608.402 561.507 609.319L498.562 672.263C498.105 672.721 497.505 672.949 496.905 672.949Z" fill="white"/>
<path id="Vector_6" d="M726.773 672.949C726.171 672.949 725.572 672.72 725.113 672.262L670.381 617.528C669.463 616.611 669.463 615.128 670.381 614.211C671.296 613.295 672.78 613.295 673.697 614.211L728.43 668.946C729.347 669.862 729.347 671.345 728.43 672.262C727.973 672.721 727.373 672.949 726.773 672.949Z" fill="white"/>
<path id="Vector_7" d="M523.682 380.701C521.736 380.701 516.046 378.226 514.703 374.492C514.124 372.886 514.1 370.42 517.268 367.803C524.031 362.214 527.986 346.289 528.025 346.129C528.179 345.499 528.813 345.115 529.443 345.269C530.073 345.423 530.458 346.057 530.304 346.686C530.136 347.372 526.117 363.533 518.761 369.612C516.2 371.728 516.735 373.211 516.908 373.699C517.872 376.375 522.616 378.357 523.681 378.357C524.328 378.357 524.853 378.882 524.853 379.529C524.854 380.177 524.329 380.701 523.682 380.701Z" fill="#230000"/>
<path id="Vector_8" d="M629.683 383.434C629.25 383.434 628.832 383.194 628.629 382.779C626.565 378.581 626.394 375.179 628.123 372.665C631.574 367.648 641.339 368.483 641.753 368.522C642.398 368.582 642.872 369.152 642.812 369.797C642.755 370.442 642.184 370.921 641.539 370.858C639.091 370.64 632.272 370.769 630.055 373.998C628.845 375.76 629.073 378.365 630.736 381.744C631.021 382.326 630.781 383.028 630.201 383.314C630.033 383.396 629.857 383.434 629.683 383.434Z" fill="#230000"/>
<g id="hand">
<path d="M539.854 484.949C535.493 492.796 491.935 565.977 473.638 563.363C468.034 562.565 455.472 560.453 439.71 556.08C404.056 546.182 352.032 524.707 327.262 480.599C318.549 410.032 397.888 351.781 400.503 350.044C400.503 350.044 416.138 338.585 420.486 322.025C424.85 305.464 429.259 299.445 439.71 295.962C444.94 294.22 451.187 293.095 456.4 295.146C460.133 296.613 460.161 300.252 465.796 300.539C467.668 300.633 470.788 303.357 472.769 303.729C485.468 306.113 482.665 318.592 483.218 322.025C484.062 327.247 481.843 327.606 482.71 330.22C483.578 332.836 490.186 329.871 491.934 337.705C493.669 345.55 480.604 354.265 468.407 363.049C456.211 371.833 449.244 368.208 444.883 376.043C440.529 383.889 430.947 413.514 426.586 436.161C434.796 433.193 444.413 431.446 454.581 430.578C495.102 427.072 544.381 437.381 548.566 438.776C553.787 440.524 544.205 477.116 539.854 484.949Z" fill="#EAEAEA"/>
<path d="M539.854 484.949C535.493 492.796 491.935 565.977 473.638 563.363C468.034 562.565 455.472 560.453 439.71 556.08C442.945 525.856 450.991 459.77 454.581 430.579C495.102 427.073 544.381 437.382 548.566 438.777C553.787 440.524 544.205 477.116 539.854 484.949Z" fill="#230000"/>
<path d="M464.021 350.638C460.025 350.638 456.822 349.418 455.946 349.05C455.349 348.799 455.07 348.111 455.32 347.514C455.572 346.916 456.266 346.639 456.856 346.888C460.272 348.325 465.944 349.159 470.691 346.779C474.955 344.641 477.927 340.281 479.524 333.822C485.151 311.078 477.508 306.927 475.033 306.197C475.02 306.193 474.902 306.157 474.89 306.154C474.276 305.949 473.942 305.286 474.147 304.672C474.351 304.059 475.015 303.725 475.627 303.928C479.516 305.075 487.761 310.296 481.801 334.386C480.031 341.541 476.648 346.417 471.743 348.877C469.105 350.199 466.422 350.638 464.021 350.638Z" fill="#230000"/>
<path d="M455.328 348.749C454.282 348.749 453.548 348.641 453.263 348.59C451.463 348.273 449.956 347.109 448.908 345.225C447.406 342.527 447.15 338.88 447.641 337.653C447.881 337.05 448.563 336.761 449.164 336.998C449.766 337.239 450.059 337.92 449.818 338.522C449.63 339.073 449.765 342.073 451.045 344.234C451.735 345.406 452.618 346.094 453.67 346.279C454.898 346.494 465.853 347.941 471.834 332.089C476.951 318.526 471.727 304.283 471.672 304.141C471.445 303.536 471.753 302.859 472.358 302.631C472.965 302.404 473.643 302.711 473.87 303.318C474.099 303.932 479.456 318.538 474.03 332.918C468.709 347.017 459.518 348.749 455.328 348.749Z" fill="#230000"/>
<path d="M440.947 341.905C437.753 341.905 436.04 340.557 435.121 339.192C431.812 334.266 435.604 324.581 439.49 319.768C439.897 319.265 440.636 319.185 441.138 319.593C441.642 320 441.722 320.738 441.316 321.242C437.421 326.065 434.716 334.385 437.069 337.885C438.631 340.212 442.316 339.692 445.132 338.847C453.295 336.397 459.824 313.438 461.653 304.797C461.787 304.165 462.403 303.761 463.044 303.893C463.677 304.027 464.082 304.65 463.948 305.283C463.669 306.607 456.968 337.743 445.806 341.095C443.892 341.668 442.288 341.905 440.947 341.905Z" fill="#230000"/>
</g>
<path id="Vector_9" d="M707.079 1012.06C706.651 1012.06 706.24 1011.82 706.033 1011.42C705.738 1010.84 705.969 1010.13 706.545 1009.84C708.547 1008.82 710.758 1007.67 713.15 1006.42C713.723 1006.11 714.432 1006.34 714.732 1006.91C715.035 1007.48 714.814 1008.19 714.239 1008.49C711.839 1009.76 709.622 1010.9 707.611 1011.93C707.439 1012.02 707.258 1012.06 707.079 1012.06Z" fill="#230000"/>
<g id="hair">
<path d="M683.604 322.025C681.704 341.963 668.944 350.781 655.327 354.992C645.066 358.171 634.311 358.733 627.357 359.484C611.184 361.231 543.419 384.113 507.426 299.484C491.054 260.993 504.388 229.385 527.986 210.598C546.751 195.668 571.99 188.83 593.979 193.076C559.885 215.735 567.848 255.152 599.221 250.801C630.581 246.45 690.84 246.228 683.604 322.025Z" fill="#086370"/>
<path d="M655.326 354.992C645.065 358.171 634.311 358.733 627.357 359.484C611.184 361.231 543.418 384.113 507.425 299.484C491.053 260.993 504.387 229.385 527.985 210.598C521.346 222.102 511.625 242.438 515.577 257.134C517.795 239.553 530.858 225.586 541.226 217.928C534.459 251.727 524.104 265.238 544.827 299.038C565.55 332.826 617.903 288.06 650.754 305.042C669.049 314.496 668.217 337.6 655.326 354.992Z" fill="#003945"/>
</g>
<path id="big-star" d="M811.186 497.934L800.769 487.517L811.186 477.1C812.524 475.761 812.523 473.595 811.186 472.259C809.849 470.921 807.682 470.919 806.344 472.258L795.925 482.675L785.509 472.258C784.172 470.921 782.003 470.919 780.665 472.258C779.329 473.593 779.329 475.763 780.665 477.1L791.082 487.517L780.665 497.933C779.329 499.27 779.328 501.44 780.665 502.778C782.003 504.114 784.172 504.113 785.509 502.776L795.925 492.36L806.344 502.777C807.68 504.113 809.851 504.113 811.186 502.777C812.523 501.439 812.522 499.27 811.186 497.934Z" fill="black"/>
<path id="small-star" d="M1062.42 817.186L1054.85 809.61L1062.42 802.031C1063.39 801.058 1063.39 799.482 1062.42 798.509C1061.45 797.537 1059.87 797.537 1058.9 798.508L1051.32 806.087L1043.75 798.508C1042.77 797.537 1041.19 797.537 1040.22 798.509C1039.25 799.482 1039.25 801.061 1040.22 802.032L1047.8 809.61L1040.22 817.187C1039.25 818.159 1039.25 819.739 1040.22 820.71C1041.2 821.683 1042.77 821.682 1043.74 820.71L1051.32 813.133L1058.9 820.71C1059.87 821.683 1061.45 821.683 1062.42 820.71C1063.39 819.739 1063.4 818.159 1062.42 817.186Z" fill="black"/>
<path id="small-star_2" d="M1044.83 664.662L1037.26 657.085L1044.83 649.507C1045.81 648.534 1045.81 646.958 1044.83 645.985C1043.86 645.013 1042.29 645.013 1041.31 645.985L1033.74 653.563L1026.16 645.985C1025.19 645.013 1023.61 645.011 1022.64 645.984C1021.66 646.958 1021.66 648.536 1022.64 649.508L1030.21 657.085L1022.64 664.661C1021.66 665.635 1021.66 667.213 1022.64 668.184C1023.61 669.158 1025.18 669.156 1026.16 668.182L1033.73 660.606L1041.31 668.184C1042.28 669.158 1043.86 669.159 1044.84 668.185C1045.81 667.214 1045.81 665.636 1044.83 664.662Z" fill="black"/>
<path id="small-star_3" d="M801.653 427.104L796.058 421.51L801.652 415.916C802.371 415.198 802.369 414.032 801.652 413.316C800.933 412.598 799.769 412.598 799.052 413.315L793.457 418.909L787.862 413.314C787.144 412.598 785.977 412.598 785.259 413.315C784.54 414.033 784.542 415.2 785.259 415.916L790.854 421.511L785.261 427.106C784.542 427.823 784.54 428.989 785.261 429.706C785.977 430.424 787.143 430.424 787.86 429.705L793.456 424.111L799.05 429.706C799.769 430.425 800.933 430.425 801.652 429.706C802.371 428.989 802.371 427.823 801.653 427.104Z" fill="black"/>
<path id="small-star_4" d="M691.921 402.145L686.327 396.551L691.921 390.956C692.639 390.239 692.638 389.073 691.921 388.356C691.2 387.637 690.037 387.637 689.32 388.355L683.724 393.95L678.131 388.355C677.412 387.638 676.245 387.639 675.528 388.356C674.809 389.074 674.809 390.24 675.526 390.958L681.122 396.552L675.528 402.145C674.809 402.865 674.809 404.029 675.528 404.747C676.245 405.464 677.411 405.465 678.129 404.747L683.723 399.153L689.318 404.747C690.036 405.465 691.2 405.465 691.921 404.747C692.638 404.028 692.64 402.863 691.921 402.145Z" fill="black"/>
<path id="small-star_5" d="M663.691 206.986L656.113 199.408L663.691 191.83C664.662 190.859 664.662 189.28 663.691 188.309C662.719 187.336 661.14 187.337 660.17 188.308L652.591 195.885L645.014 188.308C644.041 187.335 642.461 187.336 641.49 188.309C640.518 189.281 640.518 190.858 641.49 191.831L649.067 199.409L641.49 206.987C640.519 207.959 640.518 209.537 641.491 210.511C642.462 211.482 644.042 211.482 645.013 210.51L652.589 202.932L660.168 210.51C661.141 211.482 662.718 211.482 663.689 210.509C664.662 209.536 664.663 207.958 663.691 206.986Z" fill="black"/>
<path id="small-star_6" d="M942.945 704.837L935.367 697.258L942.945 689.679C943.917 688.708 943.917 687.129 942.945 686.157C941.971 685.183 940.394 685.185 939.422 686.156L931.846 693.735L924.268 686.156C923.294 685.185 921.716 685.183 920.743 686.157C919.771 687.129 919.771 688.708 920.745 689.679L928.323 697.258L920.745 704.837C919.773 705.808 919.771 707.385 920.745 708.358C921.717 709.33 923.297 709.33 924.268 708.36L931.846 700.781L939.422 708.36C940.394 709.329 941.972 709.33 942.943 708.36C943.917 707.387 943.916 705.808 942.945 704.837Z" fill="black"/>
<path id="small-star_7" d="M826.986 703.495L820.75 697.259L826.986 691.022C827.786 690.223 827.784 688.923 826.986 688.123C826.183 687.323 824.887 687.324 824.089 688.123L817.852 694.359L811.615 688.123C810.814 687.322 809.514 687.322 808.715 688.122C807.914 688.923 807.914 690.221 808.715 691.023L814.952 697.26L808.715 703.496C807.916 704.296 807.915 705.593 808.715 706.395C809.515 707.194 810.816 707.194 811.613 706.395L817.852 700.159L824.086 706.395C824.885 707.194 826.184 707.194 826.986 706.394C827.786 705.593 827.786 704.294 826.986 703.495Z" fill="black"/>
<path id="small-star_8" d="M335.731 988.027L329.493 981.791L335.73 975.555C336.53 974.754 336.53 973.456 335.731 972.656C334.928 971.854 333.629 971.856 332.83 972.656L326.594 978.891L320.358 972.655C319.559 971.854 318.259 971.854 317.459 972.656C316.659 973.456 316.659 974.754 317.459 975.555L323.695 981.791L317.459 988.028C316.659 988.827 316.659 990.125 317.461 990.927C318.26 991.726 319.56 991.726 320.357 990.928L326.593 984.69L332.83 990.927C333.629 991.726 334.929 991.726 335.728 990.926C336.53 990.125 336.53 988.826 335.731 988.027Z" fill="black"/>
<path id="small-star_9" d="M275.184 1012.52L268.946 1006.28L275.184 1000.04C275.983 999.245 275.983 997.946 275.185 997.146C274.381 996.344 273.083 996.346 272.284 997.146L266.048 1003.38L259.812 997.146C259.012 996.346 257.712 996.346 256.913 997.146C256.114 997.946 256.114 999.245 256.913 1000.04L263.15 1006.28L256.913 1012.52C256.114 1013.32 256.113 1014.62 256.913 1015.42C257.713 1016.22 259.013 1016.22 259.812 1015.42L266.048 1009.18L272.284 1015.42C273.083 1016.22 274.382 1016.22 275.183 1015.42C275.982 1014.62 275.982 1013.32 275.184 1012.52Z" fill="black"/>
<path id="big-star_2" d="M1050.24 762.824L1038.97 751.559L1050.24 740.295C1051.68 738.851 1051.68 736.505 1050.24 735.06C1048.79 733.613 1046.45 733.615 1045 735.06L1033.74 746.323L1022.47 735.059C1021.03 733.613 1018.68 733.613 1017.23 735.058C1015.79 736.505 1015.79 738.851 1017.23 740.296L1028.5 751.56L1017.23 762.827C1015.79 764.27 1015.79 766.616 1017.23 768.062C1018.68 769.506 1021.03 769.506 1022.47 768.062L1033.74 756.795L1045 768.062C1046.45 769.506 1048.79 769.506 1050.24 768.06C1051.68 766.615 1051.68 764.268 1050.24 762.824Z" fill="black"/>
<g id="message">
<path d="M744.704 529.482H477.771V688.251H744.704V529.482Z" fill="#003945"/>
<path d="M611.238 630.729C610.775 630.729 610.313 630.592 609.914 630.318L480.863 541.97C479.794 541.238 479.52 539.778 480.253 538.71C480.984 537.641 482.443 537.367 483.514 538.099L611.222 625.53L735.746 538.115C736.807 537.369 738.27 537.627 739.015 538.687C739.759 539.747 739.502 541.21 738.442 541.955L612.587 630.304C612.183 630.587 611.71 630.729 611.238 630.729Z" fill="white"/>
<path d="M732.402 614.766C714.107 709.739 618.044 710.607 593.756 712.356C569.479 714.09 545.085 724.551 523.682 689.697C557.284 686.212 564.026 693.918 593.756 664.798C623.498 635.677 632.199 642.654 638.311 616.513C642.697 597.7 632.646 558.6 617.904 530.688C612.158 519.804 616.223 498.076 609.631 492.459C586.105 472.417 593.762 471.865 593.762 471.865C593.762 471.865 584.628 403.816 637.778 430.825C655.5 439.832 672.113 444.311 688.484 462.431C721.18 498.636 744.601 551.482 732.402 614.766Z" fill="#EAEAEA"/>
<path d="M688.482 462.432C668.486 477.162 634.136 513.238 617.903 530.689C612.157 519.805 605.695 510.611 599.104 504.993C575.578 484.95 563.38 467.535 563.38 467.535C563.38 467.535 582.543 394.341 635.693 421.35C653.415 430.355 672.111 444.312 688.482 462.432Z" fill="#230000"/>
</g>
</g>
</svg>
